<svg width="200" height="200" viewBox="0 0 200 200" fill="none" xmlns="http://www.w3.org/2000/svg">
<path d="M107.133 171L113.099 192.818H110.414L105.855 175.048H105.642L100.997 192.818H98.0138L93.369 175.048H93.1559L88.5962 192.818H85.9116L91.8775 171H94.6048L99.4201 188.386H99.5906L104.406 171H107.133Z" fill="white"/>
<path d="M83.861 169.41L86.4953 170.266L72.1339 188.541L69.5401 187.698L68.663 164.472L71.2974 165.328L71.8226 184.81L71.9847 184.863L83.861 169.41ZM80.2547 177.2L69.6364 173.749L70.3606 171.52L80.9789 174.97L80.2547 177.2Z" fill="white"/>
<path d="M64.0381 161.633L56.0402 182.791L53.8683 181.213L60.6243 164.157L60.4519 164.031L46.2493 175.677L43.836 173.924L50.5231 156.818L50.3507 156.692L36.217 168.389L34.0451 166.811L51.696 152.666L53.9024 154.269L47.5786 171.165L47.7166 171.265L61.8317 160.03L64.0381 161.633Z" fill="white"/>
<path d="M46.1451 146.668L47.7732 148.908L25.413 155.252L23.8099 153.045L36.7523 133.739L38.3804 135.98L27.3539 152.051L27.4541 152.188L46.1451 146.668ZM38.649 150.85L32.0865 141.817L33.9826 140.44L40.5451 149.472L38.649 150.85Z" fill="white"/>
<path d="M29 107.133L7.18182 113.099L7.18182 110.414L24.9517 105.855V105.642L7.18182 100.997L7.18182 98.0138L24.9517 93.369V93.1559L7.18182 88.5962L7.18182 85.9116L29 91.8775V94.6048L11.6136 99.4201L11.6136 99.5906L29 104.406V107.133Z" fill="white"/>
<path d="M30.59 83.861L29.7341 86.4953L11.4594 72.1339L12.3022 69.5401L35.5282 68.663L34.6722 71.2974L15.1899 71.8226L15.1372 71.9847L30.59 83.861ZM22.8005 80.2547L26.2506 69.6364L28.4796 70.3606L25.0295 80.9789L22.8005 80.2547Z" fill="white"/>
<path d="M38.367 64.0381L17.2091 56.0402L18.7871 53.8683L35.8433 60.6243L35.9685 60.4519L24.3226 46.2493L26.0759 43.836L43.1823 50.5231L43.3075 50.3507L31.6115 36.217L33.1895 34.0451L47.3341 51.696L45.731 53.9024L28.8348 47.5786L28.7346 47.7166L39.9701 61.8317L38.367 64.0381Z" fill="white"/>
<path d="M53.3324 46.1452L51.0915 47.7733L44.7484 25.413L46.9548 23.81L66.2606 36.7523L64.0197 38.3804L47.9495 27.3539L47.8116 27.4541L53.3324 46.1452ZM49.1503 38.649L58.1828 32.0865L59.5604 33.9826L50.5279 40.5451L49.1503 38.649Z" fill="white"/>
<path d="M92.8668 29L86.9009 7.18182L89.5856 7.18182L94.1452 24.9517H94.3583L99.0032 7.18182H101.986L106.631 24.9517H106.844L111.404 7.18182L114.088 7.18182L108.123 29L105.395 29L100.58 11.6136H100.409L95.5941 29L92.8668 29Z" fill="white"/>
<path d="M116.139 30.59L113.505 29.7341L127.866 11.4594L130.46 12.3022L131.337 35.5282L128.703 34.6722L128.177 15.1899L128.015 15.1372L116.139 30.59ZM119.745 22.8005L130.364 26.2506L129.639 28.4796L119.021 25.0295L119.745 22.8005Z" fill="white"/>
<path d="M135.962 38.367L143.96 17.2091L146.132 18.7871L139.376 35.8433L139.548 35.9685L153.751 24.3226L156.164 26.0759L149.477 43.1823L149.649 43.3075L163.783 31.6115L165.955 33.1895L148.304 47.3341L146.098 45.731L152.421 28.8348L152.283 28.7346L138.168 39.9701L135.962 38.367Z" fill="white"/>
<path d="M153.855 53.3324L152.227 51.0915L174.587 44.7485L176.19 46.9549L163.248 66.2606L161.62 64.0197L172.646 47.9495L172.546 47.8116L153.855 53.3324ZM161.351 49.1503L167.914 58.1828L166.017 59.5604L159.455 50.5279L161.351 49.1503Z" fill="white"/>
<path d="M171 92.8668L192.818 86.9009V89.5856L175.048 94.1452V94.3583L192.818 99.0032V101.986L175.048 106.631V106.844L192.818 111.404V114.088L171 108.123V105.395L188.386 100.58V100.409L171 95.5941V92.8668Z" fill="white"/>
<path d="M169.41 116.139L170.266 113.505L188.541 127.866L187.698 130.46L164.472 131.337L165.328 128.703L184.81 128.177L184.863 128.015L169.41 116.139ZM177.2 119.745L173.749 130.364L171.52 129.639L174.97 119.021L177.2 119.745Z" fill="white"/>
<path d="M161.633 135.962L182.791 143.96L181.213 146.132L164.157 139.376L164.031 139.548L175.677 153.751L173.924 156.164L156.818 149.477L156.692 149.649L168.389 163.783L166.811 165.955L152.666 148.304L154.269 146.098L171.165 152.421L171.265 152.283L160.03 138.168L161.633 135.962Z" fill="white"/>
<path d="M146.668 153.855L148.908 152.227L155.252 174.587L153.045 176.19L133.739 163.248L135.98 161.62L152.051 172.646L152.188 172.546L146.668 153.855ZM150.85 161.351L141.817 167.914L140.44 166.017L149.472 159.455L150.85 161.351Z" fill="white"/>
</svg>
